Coordinates
version=1
nRows=22
nColumns=18
inDegrees=yes

Units are S.I. units (second, meters, Newtons, ...)
Angles are in degrees.

endheader
time	ground_thorax_rot_x	ground_thorax_rot_y	ground_thorax_rot_z	ground_thorax_tx	ground_thorax_ty	ground_thorax_tz	clav_prot	clav_elev	scapula_abduction	scapula_elevation	scapula_upward_rot	scapula_winging	plane_elv	shoulder_elv	axial_rot	elbow_flexion	pro_sup
      1.93000000	     -0.40711598	     -0.47175663	     -8.34863219	     -0.00423131	      0.00403036	     -0.00078352	    -36.81576512	      4.63303347	    -22.18189618	     -3.60832824	     37.62354541	     -5.91477367	     15.75655795	     51.83304939	      0.22606336	      0.00000000	     34.32000000
      1.94000000	     -0.43736433	     -0.30949394	     -8.31100496	     -0.00423131	      0.00403036	     -0.00078352	    -36.94097368	      4.68819108	    -22.19900904	     -3.61754730	     37.88663678	     -6.03421052	     16.00440334	     52.47030273	      0.18819572	      0.00000000	     34.32000000
      1.95000000	     -0.44774303	     -0.18795899	     -8.31915589	     -0.00423131	      0.00403036	     -0.00078352	    -37.07611432	      4.67194509	    -22.14339516	     -3.68887648	     38.23094931	     -6.15210429	     16.27217918	     53.12303318	      0.15783681	      0.00000000	     34.32000000
      1.96000000	     -0.46238964	     -0.16069960	     -8.35548739	     -0.00423131	      0.00403036	     -0.00078352	    -37.16344511	      4.60508185	    -21.95251888	     -3.79866146	     38.62898546	     -6.24372777	     16.47684671	     53.84538538	      0.13785095	      0.00000000	     34.32000000
      1.97000000	     -0.48266430	     -0.21848318	     -8.40386711	     -0.00423131	      0.00403036	     -0.00078352	    -37.20385055	      4.61186750	    -21.69029538	     -3.85609971	     39.05719850	     -6.34178915	     16.67070863	     54.56270276	      0.11031315	      0.00000000	     34.32000000
      1.98000000	      0.40658251	     -0.78106458	     -8.29686055	     -0.00423131	      0.00403036	     -0.00078352	    -37.20919352	      5.78807089	    -20.65229319	     -3.28369084	     40.96115538	     -7.02659106	     16.86047472	     54.45154506	     -0.30812221	      0.00000000	     34.32000000
      1.99000000	      0.02419133	     -0.72344304	     -8.25741021	     -0.00423131	      0.00403036	     -0.00078352	    -37.11956883	      5.59099706	    -20.77205977	     -3.35920799	     40.53125001	     -6.85711414	     17.19550986	     55.60500777	     -0.21491637	      0.00000000	     34.32000000
      2.00000000	     -0.14372032	     -0.65768124	     -8.36324447	     -0.00423131	      0.00403036	     -0.00078352	    -37.22792628	      5.40555918	    -20.78129244	     -3.51314917	     40.65330366	     -6.87225941	     17.39104031	     56.25384586	     -0.19282731	      0.00000000	     34.32000000
      2.01000000	     -0.09639623	     -0.65889153	     -8.44993886	     -0.00423131	      0.00403036	     -0.00078352	    -37.43315268	      5.35725097	    -20.59010737	     -3.64423249	     41.29522657	     -7.05789225	     17.48828629	     56.50368890	     -0.24551053	      0.00000000	     34.32000000
      2.02000000	     -0.32241595	     -0.64449884	     -8.27604675	     -0.00423131	      0.00403036	     -0.00078352	    -37.54841969	      5.28491693	    -20.48705456	     -3.74489828	     41.62886359	     -7.14290126	     17.57116596	     56.81451317	     -0.24420231	      0.00000000	     34.32000000
      2.03000000	     -0.18786625	     -0.57525385	     -8.50615855	     -0.00423131	      0.00403036	     -0.00078352	    -37.66807259	      5.00734122	    -20.27647489	     -3.99484914	     42.01676263	     -7.17472335	     17.71714507	     57.93108673	     -0.21158311	      0.00000000	     34.32000000
      2.04000000	     -0.25639725	     -0.54498707	     -8.51179445	     -0.00423131	      0.00403036	     -0.00078352	    -37.74485405	      4.95934239	    -20.12093937	     -4.07396889	     42.35120091	     -7.24754787	     18.07342002	     58.71990442	     -0.22343249	      0.00000000	     34.32000000
      2.05000000	     -0.25071000	     -0.55246812	     -8.58144678	     -0.00423131	      0.00403036	     -0.00078352	    -37.86553823	      5.16899789	    -20.04334791	     -3.98829346	     42.78980917	     -7.43568425	     18.57813193	     59.31824856	     -0.26712791	      0.00000000	     34.32000000
      2.06000000	      0.48149339	     -0.92464808	     -8.39673166	     -0.00423131	      0.00403036	     -0.00078352	    -37.99751759	      6.47566774	    -19.54110807	     -3.25815361	     44.29323123	     -8.11149744	     19.11863701	     59.17310213	     -0.68599173	      0.00000000	     34.32000000
      2.07000000	      0.11916009	     -0.96646114	     -8.47930847	     -0.00423131	      0.00403036	     -0.00078352	    -38.03609398	      6.53938192	    -19.53005580	     -3.22997018	     44.41434214	     -8.16504690	     19.16328300	     59.39930259	     -0.68188117	      0.00000000	     34.32000000
      2.08000000	      0.06423107	     -1.08788308	     -8.52411325	     -0.00423131	      0.00403036	     -0.00078352	    -37.96890044	      6.43915949	    -19.50472305	     -3.27807855	     44.26489982	     -8.08383505	     19.63873499	     60.60029442	     -0.58898372	      0.00000000	     34.32000000
      2.09000000	      0.02962298	     -1.14973647	     -8.60336347	     -0.00423131	      0.00403036	     -0.00078352	    -38.03389001	      6.38496850	    -19.37679473	     -3.34926095	     44.53234838	     -8.13820073	     19.88895421	     61.21760534	     -0.57005577	      0.00000000	     34.32000000
      2.10000000	      0.04366634	     -1.17474744	     -8.63985592	     -0.00423131	      0.00403036	     -0.00078352	    -38.11951472	      6.38463290	    -19.21794729	     -3.39524273	     44.90513095	     -8.23205183	     20.12086381	     61.78424260	     -0.56457010	      0.00000000	     34.32000000
      2.11000000	     -0.05101063	     -1.19131735	     -8.54880656	     -0.00423131	      0.00403036	     -0.00078352	    -38.21477172	      6.41452844	    -19.04602096	     -3.42517358	     45.32730483	     -8.34490830	     20.35993697	     62.13915466	     -0.57492725	      0.00000000	     34.32000000
      2.12000000	      0.13259591	     -1.11991461	     -8.75616417	     -0.00423131	      0.00403036	     -0.00078352	    -38.36806924	      6.44619893	    -18.86252791	     -3.47038580	     45.88046704	     -8.50267133	     20.26009084	     62.79491935	     -0.57957165	      0.00000000	     34.32000000
      2.13000000	     -0.02153364	     -1.13480017	     -8.60430287	     -0.00423131	      0.00403036	     -0.00078352	    -38.43145334	      6.47157659	    -18.68876784	     -3.49230989	     46.23834014	     -8.58792392	     20.39822558	     63.12386194	     -0.58909972	      0.00000000	     34.32000000
      2.14000000	      0.29745943	     -1.21300185	     -8.69535752	     -0.00423131	      0.00403036	     -0.00078352	    -38.53373607	      6.76199466	    -18.28559177	     -3.37860711	     47.08153361	     -8.83110709	     20.23009757	     63.62292033	     -0.68129435	      0.00000000	     34.32000000
